<svg width="452" height="509" viewBox="0 0 452 509" fill="none" xmlns="http://www.w3.org/2000/svg">
<g clip-path="url(#clip0_40506_287)">
<path fill-rule="evenodd" clip-rule="evenodd" d="M175.092 362.628C123.387 363.284 65.7556 352.25 37.8561 308.754C10.8244 266.611 34.0407 214.171 49.2887 166.496C63.7032 121.428 77.7461 72.7969 120.097 51.6187C165.515 28.9066 220.622 33.6263 264.756 58.7488C308.194 83.4753 336.08 128.634 342.421 178.174C348.449 225.268 328.25 270.301 296.338 305.479C264.766 340.282 222.107 362.033 175.092 362.628Z" fill="#A5DEFF"/>
<g clip-path="url(#clip1_40506_287)">
<ellipse cx="75.6474" cy="73.5058" rx="4.62228" ry="7.26358" transform="rotate(-5.63119 75.6474 73.5058)" fill="#0D070C"/>
<ellipse rx="4.62228" ry="7.26358" transform="matrix(-0.910908 0.412609 0.412609 0.910908 122.581 59.6215)" fill="#0D070C"/>
<path fill-rule="evenodd" clip-rule="evenodd" d="M92.8003 41.7689C84.0056 44.2393 68.0451 52.7088 74.5614 66.8227C78.9296 76.2841 76.646 80.5481 74.1774 85.1574C72.043 89.1429 69.7703 93.3865 71.5403 101.471C73.1481 108.815 76.4919 113.359 79.8293 117.894C84.4156 124.126 88.9897 130.341 89.0305 143.784C89.0867 162.363 102.744 211.547 109.566 233.817L141.935 225.144L142.021 225.462L174.391 216.789C169.163 194.092 156.399 144.669 147.158 128.55C140.647 117.193 142.821 110.08 144.988 102.988C146.666 97.4987 148.339 92.0226 145.978 84.602C143.454 76.6701 138.281 73.8344 133.3 71.1037C127.6 67.9791 122.151 64.9921 121.208 54.6656C119.794 39.1844 101.738 39.8299 92.8858 42.0878L92.8003 41.7689Z" fill="white"/>
<ellipse rx="11.1709" ry="15.7349" transform="matrix(-0.761754 0.647867 0.647867 0.761754 83.3453 106.717)" fill="url(#paint0_radial_40506_287)"/>
<ellipse rx="11.1709" ry="15.7349" transform="matrix(-0.952397 -0.30486 -0.30486 0.952397 135.594 93.548)" fill="url(#paint1_radial_40506_287)"/>
<path d="M164.832 179.122C144.137 195.526 112.459 200.096 99.4197 198.141L101.632 205.787C131.629 212.19 157.498 195.596 167.016 186.704L164.832 179.122Z" fill="#005BBB"/>
<path d="M167.016 186.447C142.561 207.225 114.62 207.481 101.543 205.678L103.403 211.635C133.524 217.688 159.861 203.931 169.201 194.929L167.016 186.447Z" fill="#FFD500"/>
<ellipse opacity="0.5" cx="121.689" cy="57.3653" rx="2.07212" ry="3.25619" transform="rotate(9.05007 121.689 57.3653)" fill="white"/>
<ellipse opacity="0.5" cx="74.6538" cy="70.7305" rx="2.07212" ry="3.25619" transform="rotate(9.05007 74.6538 70.7305)" fill="white"/>
<path d="M138.375 211.03C81.7257 222.058 93.8716 298.834 107.026 335.843C173.279 357.516 296.918 379.583 261.446 294.466C225.973 209.35 179.348 199.43 160.47 205.109L138.375 211.03Z" fill="white"/>
<path d="M164.318 177.837C181.274 175.898 209.09 181.181 185.279 214.643C161.644 247.859 157.068 268.744 169.757 264.635C169.849 264.601 169.944 264.569 170.042 264.54C169.946 264.573 169.851 264.605 169.757 264.635C166.23 265.953 167.843 270.71 166.021 272.639C151.896 274.884 151.633 255.901 183.18 214.254C190.772 203.182 195.843 181.622 165.911 182.783L164.318 177.837Z" fill="#FFD500"/>
<path d="M162.051 170.676C179.335 166.728 198.191 165.177 178.98 200.95C159.966 236.356 180.135 233.707 192.957 227.823C193.079 227.761 193.21 227.699 193.353 227.639C193.222 227.701 193.09 227.762 192.957 227.823C189.8 229.454 193.624 232.045 192.069 234.136C177.775 238.045 154.698 236.854 176.737 200.82C182.796 189.017 194.302 170.007 163.418 174.752L162.051 170.676Z" fill="#005BBB"/>
<path d="M84.5659 83.1124C77.5978 61.1896 97.8975 51.7785 97.8807 52.0769C120.827 52.0769 124.029 71.7252 124.029 74.7602C124.029 83.1124 138.858 86.5224 137.155 95.6825C135.451 104.843 140.036 121.743 140.008 134.397C139.986 144.52 136.167 147.275 134.26 147.388C132.734 147.844 131.72 147.985 128.52 148.926C115.846 152.652 110.565 136.133 94.4356 119.947C78.306 103.76 93.2759 110.516 84.5659 83.1124Z" fill="#FF6B0A"/>
<path d="M126.341 140.794C115.896 142.635 106.531 120.865 103.154 109.749C109.055 106.687 122.133 101.109 127.232 103.298C133.605 106.033 139.396 138.492 126.341 140.794Z" fill="#1F0C02"/>
<path d="M127.645 137.368C134.549 134.561 128.105 119.527 124.02 112.361L110.148 116.079C113.103 124.345 120.74 140.175 127.645 137.368Z" fill="#724B3B"/>
<path d="M125.354 131.983C126.546 130.534 120.246 115.637 116.946 108.37L113.986 109.513C117.279 117.607 124.162 133.433 125.354 131.983Z" fill="#6B3B28"/>
<path d="M96.7007 102.249C99.6584 85.7337 93.4611 78.6781 89.9927 77.2148C96.914 60.1839 111.48 65.1339 117.898 69.7377C113.611 86.2678 116.594 73.1634 127.795 93.9178C136.755 110.521 126.666 119.685 120.502 122.191C111.336 122.426 93.743 118.765 96.7007 102.249Z" fill="#ED5E00"/>
<path d="M130.649 101.085C108.373 83.2637 100.671 102.737 99.6039 114.701C102.289 118.767 110.309 125.95 120.912 122.152C131.516 118.353 131.822 106.524 130.649 101.085Z" fill="#FF8E3D"/>
<path d="M111.677 103.172C110.991 101.33 109.415 98.0058 108.592 99.4451C107.77 100.884 110.306 102.529 111.677 103.172Z" fill="#FD7411"/>
<path d="M115.273 102.215C114.646 100.353 113.777 96.7775 115.323 97.3778C116.868 97.9782 115.933 100.853 115.273 102.215Z" fill="#FD7411"/>
<path d="M101.267 25.0374L107.05 40.8443C100.471 51.742 83.233 53.01 75.4367 52.2817L69.7822 36.0894L101.267 25.0374Z" fill="#373500"/>
<path d="M107.05 40.8442C107.35 50.1398 101.036 64.6958 75.4368 52.1531L107.05 40.8442Z" fill="#373500"/>
<ellipse cx="85.5634" cy="30.556" rx="16.7123" ry="2.88079" transform="rotate(-19.0312 85.5634 30.556)" fill="#373500"/>
<path d="M101.267 25.0374L107.05 40.8443C100.471 51.742 83.233 53.01 75.4367 52.2817L69.7822 36.0894C69.7822 36.0894 72.5014 35.7484 74.1516 35.1898C76.1288 34.5205 78.9065 32.7481 78.9065 32.7481L92.5286 43.8V27.3506C92.5286 27.3506 95.4926 27.8411 97.2835 27.3506C99.0187 26.8755 101.267 25.0374 101.267 25.0374Z" fill="#4B4800"/>
<path d="M69.1887 28.27C69.2611 28.2811 69.3206 28.2867 69.3769 28.3021C69.8452 28.4161 70.1939 28.6497 70.4671 29.0939C70.5828 29.282 70.6806 29.4877 70.7844 29.682C70.8758 29.8544 70.9658 30.0233 71.0602 30.1941C71.0852 30.2381 71.0875 30.2614 71.043 30.2928C70.9467 30.3552 70.883 30.4537 70.8867 30.5863C70.8879 30.7038 70.9409 30.7903 71.0267 30.8432C71.114 30.8996 71.2073 30.8916 71.2972 30.8487C71.3414 30.8256 71.3628 30.79 71.3673 30.7306C71.4086 30.2771 71.3622 29.8367 71.24 29.4034C71.1376 29.0453 70.9762 28.718 70.8279 28.3879C70.7443 28.1993 70.6651 28.0043 70.5756 27.8188C70.5205 27.7008 70.4771 27.5849 70.4559 27.4534C70.4347 27.3218 70.4383 27.1896 70.4725 27.0535C70.586 27.1042 70.6799 27.1856 70.7483 27.2925C70.811 27.3943 70.8647 27.5089 70.9126 27.6183C70.9647 27.7378 71.002 27.865 71.0468 27.9843C71.1649 28.3016 71.2799 28.6205 71.4068 28.9332C71.6213 29.4529 71.9342 29.8803 72.3488 30.2058C72.4029 30.2509 72.451 30.2462 72.5043 30.2102C72.6405 30.1227 72.6963 29.9429 72.6349 29.7915C72.5776 29.6503 72.4165 29.5795 72.2751 29.6453C72.2236 29.6681 72.2124 29.6494 72.1992 29.5993C72.1262 29.34 72.0488 29.0788 71.9728 28.821C71.8891 28.5265 71.7906 28.2397 71.7845 27.925C71.7768 27.5093 71.8774 27.1756 72.0745 26.8241C72.0897 26.7999 72.1049 26.7756 72.1262 26.74C72.1385 26.7703 72.1467 26.7905 72.1549 26.8106C72.6829 28.112 73.1891 29.3595 73.7171 30.6608C73.7471 30.7348 73.7471 30.7348 73.6852 30.7671C73.4521 30.8889 73.216 31.0122 72.9829 31.1339C72.9415 31.1555 72.9293 31.1782 72.9395 31.2299C73.0163 31.6217 72.977 32.0009 72.8103 32.3569C72.7763 32.4317 72.7537 32.5169 72.7253 32.5969C72.5216 32.4913 72.2866 32.4674 72.0912 32.3208C71.9315 32.2005 71.7854 32.0608 71.6738 31.8827C71.6472 31.8436 71.6241 31.8394 71.5887 31.8579C71.3496 31.9827 71.1136 32.106 70.8745 32.2308C70.8332 32.2524 70.8114 32.2516 70.7896 32.1977C70.2588 30.8897 69.7485 29.6321 69.2178 28.3241C69.2092 28.3204 69.2037 28.307 69.1887 28.27ZM69.6912 28.7329C69.6867 28.7394 69.6778 28.744 69.6733 28.7504C69.6829 28.774 69.6924 28.7975 69.702 28.821C69.9571 29.4498 70.1918 30.0282 70.4469 30.657C70.4892 30.7612 70.4892 30.7612 70.5837 30.7119C70.6191 30.6934 70.6327 30.6741 70.6252 30.6291C70.6101 30.4862 70.6427 30.3551 70.7155 30.2437C70.7459 30.1952 70.7395 30.1619 70.7145 30.1179C70.5938 29.8997 70.4688 29.6798 70.357 29.457C70.2381 29.2257 70.1172 29.0688 69.925 28.9124C69.8482 28.8465 69.7696 28.7939 69.6912 28.7329ZM72.1269 27.4732C72.121 27.4763 72.1167 27.4745 72.1108 27.4775C72.104 27.5137 72.0972 27.5498 72.0934 27.5844C72.0601 27.8463 72.0298 28.0536 72.0972 28.3078C72.1846 28.6289 72.2779 28.947 72.3682 29.2666C72.3787 29.31 72.3984 29.3323 72.4434 29.3373C72.5667 29.3503 72.6744 29.4041 72.7632 29.5085C72.8041 29.5564 72.842 29.5529 72.9119 29.4961C72.9551 29.4613 72.921 29.4302 72.9087 29.4C72.6495 28.7611 72.4107 28.1726 72.1501 27.5304C72.1449 27.5086 72.1367 27.4885 72.1269 27.4732ZM71.3677 31.146C71.3516 31.1504 71.3326 31.1562 71.3092 31.1603C71.1042 31.2103 70.9173 31.1816 70.7696 30.9938C70.7484 30.9682 70.7312 30.9609 70.706 30.9781C70.6853 30.9889 70.6647 30.9997 70.644 31.0105C70.6145 31.0259 70.6081 31.0455 70.6218 31.0791C70.7241 31.3313 70.8278 31.5869 70.9331 31.8375C70.9386 31.851 70.9744 31.8689 70.9862 31.8628C71.147 31.7829 71.3093 31.6982 71.4673 31.6116C71.4791 31.6054 71.4931 31.5696 71.4906 31.5546C71.4506 31.4206 71.4105 31.2867 71.3677 31.146ZM72.6307 30.4865C72.6971 30.6148 72.7637 30.7349 72.8287 30.8598C72.8467 30.8953 72.8703 30.883 72.8939 30.8706C73.0444 30.792 73.1906 30.7116 73.3425 30.6364C73.3897 30.6117 73.3962 30.5839 73.3728 30.535C73.2785 30.3112 73.19 30.0844 73.0972 29.8557C73.0549 29.7515 73.0549 29.7515 72.9634 29.7993C72.9369 29.8131 72.9133 29.8255 72.9194 29.8671C72.9468 30.0932 72.8636 30.2671 72.7215 30.4105C72.6902 30.4391 72.6562 30.461 72.6307 30.4865ZM71.6204 29.8649C71.6428 30.167 71.6625 30.4623 71.6311 30.764C71.7513 30.7868 71.8641 30.8094 71.9786 30.827C71.9945 30.8309 72.0213 30.8088 72.0319 30.791C72.0868 30.6971 72.1331 30.5996 72.188 30.5058C72.2048 30.4766 72.2038 30.4567 72.1768 30.4342C71.9844 30.2861 71.8206 30.1027 71.6629 29.9079C71.6472 29.8957 71.6331 29.8786 71.6204 29.8649ZM71.9042 31.7013C71.9633 31.8823 72.2675 32.1472 72.3826 32.1401C72.3842 32.1352 72.3858 32.1303 72.3858 32.1303C72.3149 31.9554 72.2469 31.779 72.1743 31.6091C72.1689 31.5956 72.14 31.5863 72.1269 31.5891C72.0504 31.6209 71.978 31.6627 71.9042 31.7013ZM72.6332 32.0174C72.726 31.8671 72.7276 31.4302 72.6524 31.3065C72.5874 31.3404 72.5166 31.3774 72.4517 31.4113C72.4133 31.4313 72.4083 31.4543 72.4247 31.4946C72.482 31.6359 72.5393 31.7771 72.5966 31.9183C72.606 31.9501 72.6182 31.9804 72.6332 32.0174ZM71.8997 31.3817C71.938 31.3617 71.9807 31.3434 72.0163 31.3167C72.0282 31.3105 72.0408 31.2713 72.0338 31.2627C71.9561 31.124 71.8216 31.0394 71.684 31.0705C71.6547 31.0777 71.6427 31.0921 71.6491 31.1254C71.6741 31.2224 71.7021 31.3178 71.7285 31.4181C71.7392 31.4533 71.7623 31.4575 71.7889 31.4436C71.8229 31.4218 71.8613 31.4017 71.8997 31.3817ZM72.4426 31.0981C72.4781 31.0797 72.5105 31.0627 72.5459 31.0442C72.5827 31.0291 72.5965 31.0015 72.5729 30.9608C72.5299 30.8814 72.487 30.802 72.4411 30.7241C72.4188 30.6868 72.397 30.686 72.367 30.7179C72.2699 30.8134 72.2255 31.0037 72.2758 31.1364C72.2812 31.1498 72.3114 31.1626 72.3246 31.1598C72.3673 31.1416 72.4043 31.1182 72.4426 31.0981Z" fill="#FFD500"/>
</g>
</g>
<defs>
<radialGradient id="paint0_radial_40506_287" cx="0" cy="0" r="1" gradientUnits="userSpaceOnUse" gradientTransform="translate(11.1709 15.7349) rotate(90) scale(15.7349 11.1709)">
<stop stop-color="#FFBBBB"/>
<stop offset="1" stop-color="#FFBBBB" stop-opacity="0"/>
</radialGradient>
<radialGradient id="paint1_radial_40506_287" cx="0" cy="0" r="1" gradientUnits="userSpaceOnUse" gradientTransform="translate(11.1709 15.7349) rotate(90) scale(15.7349 11.1709)">
<stop stop-color="#FFBBBB"/>
<stop offset="1" stop-color="#FFBBBB" stop-opacity="0"/>
</radialGradient>
<clipPath id="clip0_40506_287">
<rect width="452" height="509" fill="white"/>
</clipPath>
<clipPath id="clip1_40506_287">
<rect width="445" height="514" fill="white" transform="translate(32 17)"/>
</clipPath>
</defs>
</svg>
