<svg width="640" height="719" viewBox="0 0 640 719" fill="none" xmlns="http://www.w3.org/2000/svg">
<g clip-path="url(#clip0_2_17)">
<path fill-rule="evenodd" clip-rule="evenodd" d="M302.397 672.513C202.564 673.778 91.2866 652.475 37.4176 568.491C-14.7761 487.119 30.0506 385.867 59.4918 293.816C87.3239 206.796 114.438 112.898 196.21 72.0071C283.906 28.154 390.308 37.2668 475.522 85.7741C559.393 133.517 613.235 220.711 625.479 316.363C637.118 407.294 598.117 494.245 536.501 562.167C475.542 629.366 393.173 671.363 302.397 672.513Z" fill="#A5DEFF"/>
<g clip-path="url(#clip1_2_17)">
<ellipse cx="155.453" cy="177.368" rx="13.0738" ry="20.5445" transform="rotate(-5.63119 155.453 177.368)" fill="#0D070C"/>
<ellipse rx="13.0738" ry="20.5445" transform="matrix(-0.910908 0.412609 0.412609 0.910908 288.201 138.097)" fill="#0D070C"/>
<path fill-rule="evenodd" clip-rule="evenodd" d="M203.969 87.6023C179.094 94.5899 133.951 118.545 152.382 158.465C164.737 185.226 158.278 197.287 151.296 210.324C145.258 221.596 138.83 233.599 143.837 256.466C148.384 277.237 157.842 290.089 167.282 302.916C180.253 320.543 193.191 338.124 193.306 376.144C193.465 428.694 232.094 567.808 251.389 630.797L342.944 606.264L203.969 87.6023ZM204.211 88.5043C229.247 82.1181 280.32 80.2924 284.318 124.08C286.986 153.287 302.398 161.736 318.519 170.574C332.609 178.297 347.241 186.318 354.379 208.753C361.058 229.742 356.324 245.23 351.579 260.756C345.448 280.814 339.299 300.934 357.716 333.057C383.853 378.647 419.957 518.438 434.741 582.634L343.186 607.166L204.211 88.5043Z" fill="white"/>
<ellipse rx="31.5961" ry="44.505" transform="matrix(-0.761754 0.647867 0.647867 0.761754 177.226 271.303)" fill="url(#paint0_radial_2_17)"/>
<ellipse rx="31.5961" ry="44.505" transform="matrix(-0.952397 -0.30486 -0.30486 0.952397 325.01 234.056)" fill="url(#paint1_radial_2_17)"/>
<path d="M407.705 476.095C349.172 522.494 259.572 535.42 222.692 529.891L228.95 551.515C313.794 569.625 386.963 522.692 413.884 497.541L407.705 476.095Z" fill="#005BBB"/>
<path d="M413.884 496.814C344.714 555.582 265.684 556.306 228.697 551.206L233.959 568.056C319.154 585.177 393.646 546.265 420.063 520.804L413.884 496.814Z" fill="#FFD500"/>
<ellipse opacity="0.5" cx="285.679" cy="131.716" rx="5.86084" ry="9.20989" transform="rotate(9.05007 285.679 131.716)" fill="white"/>
<ellipse opacity="0.5" cx="152.643" cy="169.518" rx="5.86084" ry="9.20989" transform="rotate(9.05007 152.643 169.518)" fill="white"/>
<path d="M332.873 566.344C172.646 597.536 207 814.691 244.205 919.37C431.599 980.67 781.303 1043.08 680.971 802.339C580.639 561.594 448.764 533.535 395.368 549.598L332.873 566.344Z" fill="white"/>
<path d="M406.251 472.46C454.212 466.977 532.887 481.92 465.539 576.565C398.687 670.513 385.745 729.585 421.636 717.963C421.895 717.866 422.164 717.776 422.442 717.693C422.171 717.787 421.902 717.877 421.636 717.963C411.659 721.691 416.222 735.144 411.068 740.601C371.118 746.953 370.374 693.258 459.602 575.465C481.076 544.147 495.42 483.166 410.756 486.45L406.251 472.46Z" fill="#FFD500"/>
<path d="M399.839 452.208C448.727 441.041 502.059 436.652 447.722 537.834C393.942 637.979 450.99 630.487 487.256 613.844C487.599 613.666 487.972 613.493 488.376 613.324C488.005 613.498 487.631 613.671 487.256 613.844C478.326 618.457 489.142 625.785 484.743 631.7C444.315 642.756 379.042 639.387 441.377 537.468C458.516 504.084 491.059 450.313 403.706 463.737L399.839 452.208Z" fill="#005BBB"/>
<path d="M180.678 204.54C160.97 142.532 218.386 115.914 218.338 116.758C283.241 116.758 292.296 172.332 292.296 180.916C292.296 204.54 334.24 214.184 329.422 240.093C324.604 266.002 337.571 313.802 337.493 349.594C337.431 378.227 326.629 386.02 321.236 386.337C316.92 387.629 314.05 388.027 304.999 390.688C269.151 401.226 254.216 354.506 208.594 308.723C162.973 262.94 205.314 282.049 180.678 204.54Z" fill="#FF6B0A"/>
<path d="M298.836 367.686C269.294 372.895 242.805 311.319 233.253 279.88C249.946 271.218 286.935 255.441 301.356 261.632C319.381 269.37 335.763 361.176 298.836 367.686Z" fill="#1F0C02"/>
<path d="M302.524 357.997C322.052 350.057 303.827 307.536 292.273 287.268L253.035 297.782C261.394 321.162 282.995 365.937 302.524 357.997Z" fill="#724B3B"/>
<path d="M296.046 342.768C299.418 338.668 281.596 296.534 272.264 275.98L263.891 279.211C273.204 302.105 292.674 346.867 296.046 342.768Z" fill="#6B3B28"/>
<path d="M215.001 258.667C223.367 211.954 205.838 191.997 196.028 187.859C215.605 139.688 256.803 153.689 274.955 166.71C262.83 213.464 271.267 176.399 302.948 235.102C328.293 282.064 299.757 307.982 282.321 315.071C256.395 315.734 206.636 305.381 215.001 258.667Z" fill="#ED5E00"/>
<path d="M311.021 255.373C248.016 204.968 226.23 260.047 223.212 293.887C230.805 305.387 253.49 325.702 283.482 314.959C313.474 304.215 314.338 270.759 311.021 255.373Z" fill="#FF8E3D"/>
<path d="M257.359 261.276C255.42 256.066 250.962 246.664 248.635 250.735C246.309 254.806 253.482 259.459 257.359 261.276Z" fill="#FD7411"/>
<path d="M267.531 258.57C265.757 253.302 263.301 243.19 267.671 244.888C272.042 246.586 269.399 254.717 267.531 258.57Z" fill="#FD7411"/>
<path d="M227.918 40.2787L244.274 84.9872C225.664 115.811 176.909 119.397 154.858 117.337L138.864 71.5383L227.918 40.2787Z" fill="#373500"/>
<path d="M244.274 84.987C245.123 111.279 227.263 152.45 154.857 116.974L244.274 84.987Z" fill="#373500"/>
<ellipse cx="183.5" cy="55.8877" rx="47.2695" ry="8.14809" transform="rotate(-19.0312 183.5 55.8877)" fill="#373500"/>
<path d="M227.918 40.2787L244.274 84.9872C225.664 115.811 176.909 119.397 154.858 117.337L138.864 71.5383C138.864 71.5383 146.555 70.5739 151.223 68.994C156.815 67.1008 164.672 62.0878 164.672 62.0878L203.201 93.3474V46.8215C203.201 46.8215 211.584 48.2087 216.65 46.8215C221.557 45.4775 227.918 40.2787 227.918 40.2787Z" fill="#4B4800"/>
<path d="M182.569 63.1273C182.862 63.1721 183.103 63.1948 183.331 63.2571C185.227 63.7185 186.639 64.6632 187.745 66.4595C188.214 67.2206 188.609 68.0525 189.03 68.8384C189.4 69.5354 189.764 70.2188 190.146 70.9096C190.248 71.0875 190.257 71.1816 190.077 71.3085C189.687 71.5613 189.429 71.9596 189.444 72.4957C189.449 72.9711 189.663 73.3207 190.011 73.5349C190.364 73.7628 190.742 73.7305 191.106 73.5571C191.285 73.4636 191.371 73.3197 191.39 73.0794C191.557 71.2451 191.369 69.4641 190.874 67.7114C190.46 66.263 189.806 64.9393 189.206 63.6042C188.867 62.8415 188.547 62.0527 188.184 61.3024C187.961 60.8253 187.786 60.3566 187.7 59.8245C187.614 59.2924 187.628 58.7575 187.767 58.2073C188.227 58.4124 188.607 58.7417 188.884 59.174C189.137 59.5855 189.355 60.049 189.549 60.4916C189.76 60.9749 189.911 61.4895 190.092 61.9717C190.57 63.2552 191.036 64.5449 191.55 65.8097C192.418 67.9115 193.685 69.6405 195.364 70.9569C195.583 71.1394 195.777 71.1201 195.993 70.9745C196.545 70.6209 196.771 69.8933 196.522 69.2813C196.29 68.7101 195.638 68.4239 195.065 68.6897C194.857 68.782 194.812 68.7067 194.758 68.5038C194.462 67.4549 194.149 66.3986 193.842 65.356C193.503 64.1648 193.104 63.0049 193.079 61.7321C193.048 60.0509 193.455 58.7011 194.253 57.2794C194.315 57.1814 194.376 57.0833 194.463 56.9394C194.512 57.0618 194.545 57.1434 194.579 57.225C196.716 62.4882 198.766 67.5339 200.904 72.7971C201.025 73.0963 201.025 73.0963 200.774 73.2272C199.831 73.7196 198.875 74.2182 197.931 74.7106C197.764 74.7978 197.714 74.8896 197.755 75.0987C198.066 76.6837 197.907 78.217 197.232 79.6569C197.095 79.9595 197.003 80.304 196.888 80.6276C196.063 80.2008 195.112 80.1039 194.321 79.5111C193.674 79.0243 193.083 78.4594 192.631 77.7391C192.523 77.581 192.429 77.564 192.286 77.6388C191.318 78.1436 190.362 78.6423 189.395 79.1471C189.227 79.2344 189.139 79.231 189.051 79.0134C186.902 73.7229 184.836 68.6365 182.687 63.3461C182.652 63.3313 182.63 63.2769 182.569 63.1273ZM184.604 64.9997C184.585 65.0257 184.55 65.0444 184.531 65.0705C184.57 65.1657 184.609 65.2609 184.647 65.3561C185.68 67.8993 186.63 70.2385 187.663 72.7817C187.835 73.2033 187.835 73.2034 188.217 73.0039C188.36 72.9291 188.415 72.8509 188.385 72.669C188.324 72.091 188.456 71.5606 188.751 71.1102C188.874 70.9141 188.848 70.7792 188.747 70.6013C188.258 69.719 187.752 68.8293 187.299 67.9283C186.818 66.9927 186.328 66.358 185.55 65.7256C185.239 65.4593 184.921 65.2462 184.604 64.9997ZM194.465 59.9047C194.441 59.9172 194.424 59.9098 194.4 59.9223C194.373 60.0685 194.345 60.2147 194.329 60.3546C194.195 61.4137 194.072 62.2524 194.345 63.2803C194.699 64.5791 195.077 65.8654 195.442 67.158C195.485 67.3337 195.565 67.4238 195.747 67.4442C196.246 67.4969 196.682 67.7145 197.042 68.1367C197.207 68.3305 197.361 68.3163 197.644 68.0863C197.818 67.9458 197.68 67.82 197.631 67.6976C196.581 65.1136 195.614 62.7335 194.559 60.1359C194.538 60.0481 194.505 59.9665 194.465 59.9047ZM191.392 74.7596C191.326 74.7771 191.249 74.8009 191.154 74.8173C190.324 75.0196 189.568 74.9034 188.97 74.1441C188.884 74.0404 188.814 74.0109 188.712 74.0806C188.629 74.1242 188.545 74.1678 188.461 74.2115C188.342 74.2738 188.316 74.3531 188.371 74.4891C188.786 75.5091 189.206 76.5427 189.632 77.5565C189.654 77.6109 189.799 77.6834 189.847 77.6585C190.498 77.3355 191.155 76.9927 191.794 76.6426C191.842 76.6176 191.899 76.4726 191.889 76.412C191.727 75.8702 191.565 75.3285 191.392 74.7596ZM196.505 72.092C196.774 72.611 197.044 73.0967 197.307 73.6021C197.38 73.7455 197.475 73.6956 197.571 73.6458C198.18 73.3279 198.772 73.0027 199.387 72.6984C199.578 72.5987 199.605 72.4859 199.51 72.2882C199.128 71.3832 198.77 70.4658 198.394 69.5409C198.223 69.1193 198.223 69.1193 197.852 69.3126C197.745 69.3686 197.649 69.4185 197.674 69.5868C197.785 70.5014 197.448 71.2046 196.873 71.7848C196.746 71.9004 196.608 71.9888 196.505 72.092ZM192.414 69.5781C192.505 70.7998 192.585 71.9943 192.458 73.2143C192.944 73.3067 193.401 73.398 193.865 73.4694C193.929 73.4853 194.038 73.3957 194.081 73.3238C194.303 72.9441 194.49 72.5497 194.713 72.1701C194.781 72.0522 194.777 71.9717 194.667 71.8805C193.888 71.2815 193.225 70.5397 192.587 69.752C192.523 69.7027 192.466 69.6336 192.414 69.5781ZM193.564 77.0053C193.803 77.7375 195.035 78.8091 195.501 78.7802C195.507 78.7604 195.514 78.7405 195.514 78.7405C195.226 78.0333 194.951 77.3199 194.657 76.6325C194.635 76.5781 194.518 76.5401 194.465 76.5515C194.155 76.6801 193.862 76.8495 193.564 77.0053ZM196.515 78.2838C196.891 77.6758 196.897 75.909 196.593 75.4086C196.33 75.5457 196.043 75.6953 195.78 75.8324C195.625 75.9135 195.605 76.0064 195.671 76.1696C195.903 76.7408 196.135 77.312 196.367 77.8832C196.405 78.0118 196.455 78.1342 196.515 78.2838ZM193.545 75.7128C193.701 75.6318 193.873 75.5581 194.018 75.4499C194.065 75.4249 194.117 75.2663 194.088 75.2317C193.774 74.6707 193.229 74.3284 192.672 74.4542C192.553 74.4831 192.505 74.5414 192.531 74.6763C192.632 75.0684 192.745 75.4543 192.852 75.8601C192.895 76.0023 192.989 76.0193 193.097 75.9632C193.235 75.8748 193.39 75.7938 193.545 75.7128ZM195.744 74.566C195.887 74.4912 196.018 74.4226 196.162 74.3478C196.311 74.2866 196.367 74.175 196.271 74.0107C196.097 73.6893 195.923 73.368 195.737 73.053C195.647 72.9022 195.559 72.8988 195.438 73.028C195.044 73.4145 194.865 74.184 195.068 74.7206C195.09 74.775 195.212 74.8266 195.266 74.8153C195.439 74.7416 195.588 74.647 195.744 74.566Z" fill="#FFD500"/>
</g>
</g>
<defs>
<radialGradient id="paint0_radial_2_17" cx="0" cy="0" r="1" gradientUnits="userSpaceOnUse" gradientTransform="translate(31.5961 44.505) rotate(90) scale(44.505 31.5961)">
<stop stop-color="#FFBBBB"/>
<stop offset="1" stop-color="#FFBBBB" stop-opacity="0"/>
</radialGradient>
<radialGradient id="paint1_radial_2_17" cx="0" cy="0" r="1" gradientUnits="userSpaceOnUse" gradientTransform="translate(31.5961 44.505) rotate(90) scale(44.505 31.5961)">
<stop stop-color="#FFBBBB"/>
<stop offset="1" stop-color="#FFBBBB" stop-opacity="0"/>
</radialGradient>
<clipPath id="clip0_2_17">
<rect width="640" height="720" fill="white" transform="translate(0 -1)"/>
</clipPath>
<clipPath id="clip1_2_17">
<rect width="637" height="735" fill="white" transform="translate(32 16.2629)"/>
</clipPath>
</defs>
</svg>
