<svg width="30" height="40" viewBox="0 0 30 40" fill="none" xmlns="http://www.w3.org/2000/svg">
<path d="M28.046 3.9444C19.8276 9.99547 21.092 19.4082 21.1494 19.8116L21.2644 20.5736L22.2414 20.6633C22.5287 20.7081 24.1954 20.977 23.9655 22.9941C23.7931 24.7421 21.2644 25.0111 20.2299 25.1007C19.3678 24.2043 16.5517 20.484 16.2644 9.81617C16.2644 9.2783 16.2644 8.74043 16.2644 8.20256C16.2644 8.20256 16.4943 4.39263 16.7241 2.77901L15.0575 0L13.3333 2.68936C13.5632 4.30298 13.7931 8.11291 13.7931 8.11291C13.7931 8.65078 13.7931 9.18866 13.7931 9.72653C13.5057 20.3943 10.6897 24.1594 9.82759 25.0111C8.73563 24.9663 6.26437 24.6525 6.09195 22.9044C5.86207 20.8874 7.52874 20.6185 7.81609 20.5736L8.7931 20.484L8.90805 19.722C8.96552 19.3186 10.2299 9.90582 2.01149 3.85475L0 2.46525V31.4655H8.33333C9.02299 35.7237 14.023 38.9061 14.2529 39.0406L15 39.5336L15.7471 39.0406C15.977 38.9061 21.0345 35.7237 21.6667 31.4655H30V2.46525L28.046 3.9444ZM6.6092 18.96C5.4023 19.3186 3.96552 20.2599 3.73563 22.0528H2.41379V7.08199C6.6092 11.4746 6.66667 17.0775 6.6092 18.96ZM8.16092 28.6865L8.21839 29.583H2.41379V23.8905H3.90805C4.54023 25.6834 6.6092 26.4454 8.50575 26.7592C8.16092 27.6556 8.16092 28.5521 8.16092 28.6865ZM10.5747 28.6417C10.5747 28.1487 10.6322 27.4315 10.9195 26.9833C13.046 27.3419 13.6207 28.6865 13.7931 29.6278H10.6322L10.5747 28.6417ZM13.8506 36.0823C12.6437 34.9617 11.2069 33.3481 10.8046 31.4655H13.8506V36.0823ZM15.3448 26.6247C15.2299 26.7143 15.1149 26.8488 15 26.9833C14.8851 26.8488 14.7701 26.7592 14.6552 26.6247C14.023 26.0868 13.2759 25.6386 12.4138 25.3697C13.2184 24.2939 14.1954 22.501 15 19.4979C15.8046 22.501 16.7816 24.3387 17.5862 25.3697C16.7241 25.6386 15.977 26.042 15.3448 26.6247ZM16.2069 36.0375V31.4655H19.2529C18.908 33.3033 17.4713 34.9169 16.2069 36.0375ZM19.4828 28.6417L19.4253 29.583H16.2644C16.4368 28.6417 17.0115 27.297 19.1379 26.9385C19.4253 27.4315 19.4828 28.1487 19.4828 28.6417ZM23.4483 18.96C23.3333 17.1223 23.4483 11.5194 27.6437 7.08199V22.0528H26.3218C26.092 20.215 24.7126 19.3186 23.4483 18.96ZM21.8391 29.583L21.8966 28.6865C21.8966 28.5521 21.954 27.6556 21.6092 26.7592C23.4483 26.4902 25.5172 25.6834 26.2069 23.8905H27.7011V29.583H21.8391Z" fill="#F2CD13"/>
</svg>
